<svg width="36" height="37" viewBox="0 0 36 37" fill="none" xmlns="http://www.w3.org/2000/svg">
<g filter="url(#filter0_d_4358_7841)">
<path d="M19.9372 7.49726C21.4564 6.86445 22.5094 5.50742 22.5094 3.93945C22.5094 1.7668 20.4918 0.00195312 18.008 0.00195312C15.5242 0.00195312 13.5066 1.7668 13.5066 3.93945C13.5066 5.50742 14.5596 6.86445 16.0789 7.49726V14.4441C15.8538 14.5355 15.6368 14.648 15.4358 14.7746L8.99721 11.5543C9.12582 10.0918 8.30593 8.6293 6.75455 7.84179C4.60032 6.75195 1.85125 7.39883 0.605332 9.2832C-0.640589 11.1676 0.0989254 13.5723 2.25316 14.6621C2.35766 14.7184 2.46216 14.7676 2.57469 14.8098V21.1941C2.47019 21.2363 2.35766 21.2855 2.25316 21.3418C0.0989254 22.4316 -0.640589 24.8363 0.605332 26.7207C1.85125 28.6051 4.60032 29.2519 6.75455 28.1621C8.30593 27.3816 9.11779 25.9121 8.98917 24.4496L13.0485 22.4176C12.1241 21.6301 11.4489 20.6176 11.1354 19.4855L7.07608 21.5246C6.86709 21.398 6.6581 21.2926 6.43303 21.1941V14.8098C6.6581 14.7184 6.87513 14.6059 7.07608 14.4793L13.5147 17.6996C13.5066 17.798 13.4986 17.8965 13.4986 18.0019C13.4986 19.5699 14.5516 20.9269 16.0708 21.5598V28.5066C14.5516 29.1394 13.4986 30.4965 13.4986 32.0644C13.4986 34.2371 15.5162 36.0019 18 36.0019C20.4838 36.0019 22.5014 34.2371 22.5014 32.0644C22.5014 30.4965 21.4484 29.1394 19.9292 28.5066V21.5598C20.1542 21.4684 20.3713 21.3559 20.5722 21.2293L27.0108 24.4496C26.8822 25.9121 27.7021 27.3746 29.2454 28.1621C31.3997 29.2519 34.1487 28.6051 35.3947 26.7207C36.6406 24.8363 35.9011 22.4316 33.7468 21.3418C33.6423 21.2855 33.5298 21.2363 33.4253 21.1941V14.8098C33.5378 14.7676 33.6423 14.7184 33.7468 14.6621C35.9011 13.5723 36.6406 11.1676 35.3947 9.2832C34.1487 7.39883 31.4157 6.75195 29.2615 7.84179C27.7101 8.62226 26.8983 10.0918 27.0269 11.5543L22.9596 13.5863C23.884 14.3738 24.5592 15.3863 24.8727 16.5184L28.94 14.4793C29.149 14.6059 29.358 14.7113 29.583 14.8098V21.1941C29.358 21.2855 29.1409 21.398 28.94 21.5176L22.5014 18.2973C22.5094 18.1988 22.5175 18.1004 22.5175 17.9949C22.5175 16.4269 21.4645 15.0699 19.9452 14.4371V7.49023L19.9372 7.49726Z" fill="#F60433"/>
</g>
<defs>
<filter id="filter0_d_4358_7841" x="0" y="0.00195312" width="36" height="37" filterUnits="userSpaceOnUse" color-interpolation-filters="sRGB">
<feFlood flood-opacity="0" result="BackgroundImageFix"/>
<feColorMatrix in="SourceAlpha" type="matrix" values="0 0 0 0 0 0 0 0 0 0 0 0 0 0 0 0 0 0 127 0" result="hardAlpha"/>
<feOffset dy="1"/>
<feComposite in2="hardAlpha" operator="out"/>
<feColorMatrix type="matrix" values="0 0 0 0 1 0 0 0 0 1 0 0 0 0 1 0 0 0 0.8 0"/>
<feBlend mode="normal" in2="BackgroundImageFix" result="effect1_dropShadow_4358_7841"/>
<feBlend mode="normal" in="SourceGraphic" in2="effect1_dropShadow_4358_7841" result="shape"/>
</filter>
</defs>
</svg>
