<svg width="40" height="40" viewBox="0 0 40 40" fill="none" xmlns="http://www.w3.org/2000/svg">
<path fill-rule="evenodd" clip-rule="evenodd" d="M8.14048 18.9742C15.5224 15.6225 20.4449 13.4129 22.9079 12.3453C29.9401 9.29717 31.4014 8.76767 32.3538 8.75019C32.5633 8.74634 33.0316 8.80044 33.335 9.05699C33.5912 9.27362 33.6617 9.56625 33.6954 9.77164C33.7292 9.97702 33.7712 10.4449 33.7378 10.8105C33.3567 14.9832 31.7078 25.1092 30.8689 29.7828C30.5139 31.7603 29.815 32.4233 29.1383 32.4882C27.6678 32.6292 26.5512 31.4755 25.1269 30.5025C22.8982 28.9801 21.6392 28.0323 19.4758 26.5467C16.9757 24.8297 18.5964 23.8861 20.0212 22.3439C20.3941 21.9403 26.8732 15.7988 26.9986 15.2417C27.0143 15.172 27.0289 14.9123 26.8808 14.7751C26.7327 14.638 26.5142 14.6849 26.3565 14.7222C26.133 14.7751 22.5726 17.2274 15.6754 22.0794C14.6648 22.8025 13.7495 23.1549 12.9293 23.1364C12.0252 23.1161 10.286 22.6037 8.99309 22.1657C7.40728 21.6285 6.14691 21.3445 6.25666 20.4322C6.31383 19.957 6.94177 19.471 8.14048 18.9742Z" fill="white"/>
</svg>
