<svg width="40" height="40" viewBox="0 0 40 40" fill="none" xmlns="http://www.w3.org/2000/svg">
<path d="M14.4344 32.1883C25.7552 32.1883 31.9472 22.8091 31.9472 14.6755C31.9472 14.4091 31.9472 14.1439 31.9292 13.8799C33.1338 13.0086 34.1736 11.9298 35 10.6939C33.8767 11.1919 32.685 11.5184 31.4648 11.6623C32.7498 10.8932 33.7114 9.68331 34.1708 8.25793C32.9626 8.97494 31.6408 9.48021 30.2624 9.75193C29.3344 8.76515 28.107 8.11173 26.7702 7.89278C25.4335 7.67384 24.0618 7.90157 22.8675 8.54074C21.6731 9.17992 20.7228 10.1949 20.1634 11.4286C19.6041 12.6623 19.4669 14.046 19.7732 15.3655C17.3261 15.2428 14.9322 14.6068 12.7468 13.4989C10.5614 12.391 8.63345 10.836 7.088 8.93473C6.30091 10.2897 6.05984 11.8938 6.41387 13.4203C6.76791 14.9467 7.69043 16.2809 8.9936 17.1511C8.01404 17.1224 7.05581 16.8582 6.2 16.3807V16.4587C6.20039 17.8798 6.69231 19.257 7.59234 20.3567C8.49236 21.4564 9.74508 22.2109 11.138 22.4923C10.2319 22.7395 9.28109 22.7756 8.3588 22.5979C8.75227 23.8208 9.51804 24.8902 10.549 25.6566C11.5801 26.423 12.8248 26.848 14.1092 26.8723C12.833 27.8754 11.3716 28.6171 9.80859 29.0548C8.24554 29.4926 6.61152 29.6179 5 29.4235C7.81479 31.2298 11.0899 32.1879 14.4344 32.1835" fill="white"/>
</svg>
