<svg width="24" height="24" viewBox="0 0 24 24" fill="none" xmlns="http://www.w3.org/2000/svg">
<path d="M3.25 5.25C3.25 4.83579 3.58579 4.5 4 4.5H20C20.4142 4.5 20.75 4.83579 20.75 5.25C20.75 5.66421 20.4142 6 20 6H4C3.58579 6 3.25 5.66421 3.25 5.25Z" fill="black"/>
<path d="M11.25 9.75C11.25 9.33579 11.5858 9 12 9H20C20.4142 9 20.75 9.33579 20.75 9.75C20.75 10.1642 20.4142 10.5 20 10.5H12C11.5858 10.5 11.25 10.1642 11.25 9.75Z" fill="black"/>
<path d="M11.25 14.25C11.25 13.8358 11.5858 13.5 12 13.5H20C20.4142 13.5 20.75 13.8358 20.75 14.25C20.75 14.6642 20.4142 15 20 15H12C11.5858 15 11.25 14.6642 11.25 14.25Z" fill="black"/>
<path d="M3.25 18.75C3.25 18.3358 3.58579 18 4 18H20C20.4142 18 20.75 18.3358 20.75 18.75C20.75 19.1642 20.4142 19.5 20 19.5H4C3.58579 19.5 3.25 19.1642 3.25 18.75Z" fill="black"/>
<path d="M8.36358 8.84402C8.60204 8.97619 8.75 9.22736 8.75 9.5V14.5C8.75 14.7726 8.60204 15.0238 8.36358 15.156C8.12511 15.2882 7.8337 15.2805 7.6025 15.136L3.6025 12.636C3.38321 12.4989 3.25 12.2586 3.25 12C3.25 11.7414 3.38321 11.5011 3.6025 11.364L7.6025 8.864C7.8337 8.7195 8.12511 8.71185 8.36358 8.84402ZM5.4151 12L7.25 13.1468V10.8532L5.4151 12Z" fill="black"/>
</svg>
