<svg width="17" height="17" viewBox="0 0 17 17" fill="none" xmlns="http://www.w3.org/2000/svg">
<path d="M7.08073 14.1673C6.69115 14.1673 6.35764 14.0286 6.08021 13.7512C5.80278 13.4737 5.66406 13.1402 5.66406 12.7507C5.66406 12.3611 5.80278 12.0276 6.08021 11.7501C6.35764 11.4727 6.69115 11.334 7.08073 11.334H14.1641C14.5536 11.334 14.8872 11.4727 15.1646 11.7501C15.442 12.0276 15.5807 12.3611 15.5807 12.7507C15.5807 13.1402 15.442 13.4737 15.1646 13.7512C14.8872 14.0286 14.5536 14.1673 14.1641 14.1673H7.08073ZM7.08073 9.91732C6.69115 9.91732 6.35764 9.7786 6.08021 9.50117C5.80278 9.22374 5.66406 8.89023 5.66406 8.50065C5.66406 8.11107 5.80278 7.77756 6.08021 7.50013C6.35764 7.2227 6.69115 7.08398 7.08073 7.08398H14.1641C14.5536 7.08398 14.8872 7.2227 15.1646 7.50013C15.442 7.77756 15.5807 8.11107 15.5807 8.50065C15.5807 8.89023 15.442 9.22374 15.1646 9.50117C14.8872 9.7786 14.5536 9.91732 14.1641 9.91732H7.08073ZM7.08073 5.66732C6.69115 5.66732 6.35764 5.5286 6.08021 5.25117C5.80278 4.97374 5.66406 4.64023 5.66406 4.25065C5.66406 3.86107 5.80278 3.52756 6.08021 3.25013C6.35764 2.9727 6.69115 2.83398 7.08073 2.83398H14.1641C14.5536 2.83398 14.8872 2.9727 15.1646 3.25013C15.442 3.52756 15.5807 3.86107 15.5807 4.25065C15.5807 4.64023 15.442 4.97374 15.1646 5.25117C14.8872 5.5286 14.5536 5.66732 14.1641 5.66732H7.08073ZM2.83073 5.66732C2.44115 5.66732 2.10764 5.5286 1.83021 5.25117C1.55278 4.97374 1.41406 4.64023 1.41406 4.25065C1.41406 3.86107 1.55278 3.52756 1.83021 3.25013C2.10764 2.9727 2.44115 2.83398 2.83073 2.83398C3.22031 2.83398 3.55382 2.9727 3.83125 3.25013C4.10868 3.52756 4.2474 3.86107 4.2474 4.25065C4.2474 4.64023 4.10868 4.97374 3.83125 5.25117C3.55382 5.5286 3.22031 5.66732 2.83073 5.66732ZM2.83073 9.91732C2.44115 9.91732 2.10764 9.7786 1.83021 9.50117C1.55278 9.22374 1.41406 8.89023 1.41406 8.50065C1.41406 8.11107 1.55278 7.77756 1.83021 7.50013C2.10764 7.2227 2.44115 7.08398 2.83073 7.08398C3.22031 7.08398 3.55382 7.2227 3.83125 7.50013C4.10868 7.77756 4.2474 8.11107 4.2474 8.50065C4.2474 8.89023 4.10868 9.22374 3.83125 9.50117C3.55382 9.7786 3.22031 9.91732 2.83073 9.91732ZM2.83073 14.1673C2.44115 14.1673 2.10764 14.0286 1.83021 13.7512C1.55278 13.4737 1.41406 13.1402 1.41406 12.7507C1.41406 12.3611 1.55278 12.0276 1.83021 11.7501C2.10764 11.4727 2.44115 11.334 2.83073 11.334C3.22031 11.334 3.55382 11.4727 3.83125 11.7501C4.10868 12.0276 4.2474 12.3611 4.2474 12.7507C4.2474 13.1402 4.10868 13.4737 3.83125 13.7512C3.55382 14.0286 3.22031 14.1673 2.83073 14.1673Z" fill="white"/>
</svg>
